<svg id="visual" viewBox="0 0 1000 1000" width="1000" height="1000" xmlns="http://www.w3.org/2000/svg" xmlns:xlink="http://www.w3.org/1999/xlink" version="1.1"><rect x="0" y="0" width="1000" height="1000" fill="#2B7FFF"></rect><path d="M0 226L83.3 273.7C166.7 321.3 333.3 416.7 500 455.7C666.7 494.7 833.3 477.3 916.7 468.7L1000 460L1000 1001L916.7 1001C833.3 1001 666.7 1001 500 1001C333.3 1001 166.7 1001 83.3 1001L0 1001Z" fill="#fb6464"></path><path d="M0 635L83.3 633C166.7 631 333.3 627 500 645.3C666.7 663.7 833.3 704.3 916.7 724.7L1000 745L1000 1001L916.7 1001C833.3 1001 666.7 1001 500 1001C333.3 1001 166.7 1001 83.3 1001L0 1001Z" fill="#ec844f"></path></svg>